<svg width="180" height="180" viewBox="0 0 180 180" fill="none" xmlns="http://www.w3.org/2000/svg">
<g clip-path="url(#clip0_96_18)">
<path fill-rule="evenodd" clip-rule="evenodd" d="M75.4523 51.1587C74.8403 50.9945 74.2019 50.9525 73.5736 51.035C72.9453 51.1175 72.3394 51.323 71.7905 51.6397C71.2416 51.9564 70.7604 52.3781 70.3745 52.8807C69.9886 53.3833 69.7054 53.957 69.5412 54.5691C69.377 55.1812 69.335 55.8196 69.4175 56.4479C69.5 57.0762 69.7055 57.682 70.0222 58.2309C70.3389 58.7798 70.7606 59.261 71.2632 59.6469C71.7658 60.0328 72.3395 60.316 72.9516 60.4802L119.526 72.9516C120.146 73.1439 120.799 73.2091 121.445 73.1431C122.091 73.0771 122.717 72.8813 123.285 72.5675C123.853 72.2537 124.352 71.8284 124.752 71.317C125.152 70.8056 125.445 70.2187 125.613 69.5915C125.78 68.9643 125.819 68.3097 125.728 67.6669C125.636 67.0242 125.416 66.4065 125.08 65.8511C124.744 65.2956 124.299 64.8136 123.772 64.4342C123.246 64.0548 122.648 63.7857 122.014 63.643L75.4459 51.1716L75.4523 51.1587ZM70.0459 71.3445C68.8257 71.0551 67.5409 71.2526 66.4639 71.8949C65.3869 72.5372 64.6025 73.5739 64.2772 74.7849C63.9518 75.9959 64.1111 77.2861 64.7212 78.3817C65.3313 79.4772 66.3443 80.2919 67.5452 80.653L114.12 93.1373C115.356 93.4681 116.673 93.2943 117.781 92.6541C118.889 92.0139 119.697 90.9598 120.028 89.7237C120.358 88.4876 120.185 87.1708 119.544 86.0628C118.904 84.9549 117.85 84.1466 116.614 83.8159L70.0459 71.3445ZM58.7316 94.9309C59.0631 93.6969 59.8708 92.645 60.9773 92.0061C62.0838 91.3673 63.3987 91.1938 64.633 91.5237L95.683 99.8423C96.2947 100.006 96.868 100.289 97.3704 100.674C97.8728 101.059 98.2944 101.54 98.6111 102.088C98.9278 102.637 99.1334 103.242 99.2161 103.87C99.2989 104.497 99.2572 105.135 99.0934 105.747C98.9296 106.358 98.647 106.932 98.2616 107.434C97.8762 107.937 97.3957 108.358 96.8474 108.675C96.2991 108.992 95.6938 109.197 95.066 109.28C94.4383 109.363 93.8004 109.321 93.1887 109.157L62.1387 100.839C61.527 100.675 60.9537 100.392 60.4514 100.006C59.9491 99.6202 59.5277 99.1393 59.2113 98.5907C58.8949 98.042 58.6896 97.4364 58.6073 96.8085C58.525 96.1805 58.5673 95.5425 58.7316 94.9309Z" fill="#D4D4D8"/>
<path fill-rule="evenodd" clip-rule="evenodd" d="M106.072 154.202L43.9777 137.571C39.4495 136.357 35.5891 133.394 33.2454 129.334C30.9018 125.273 30.267 120.448 31.4805 115.92L52.2769 38.2948C53.4912 33.7666 56.4544 29.9062 60.5147 27.5626C64.575 25.219 69.4 24.5841 73.9284 25.7977L136.029 42.4284C140.557 43.6427 144.417 46.6058 146.761 50.6662C149.105 54.7265 149.739 59.5515 148.526 64.0798L127.723 141.698C126.509 146.227 123.546 150.087 119.485 152.431C115.425 154.774 110.6 155.416 106.072 154.202ZM40.7891 118.414C40.5159 119.434 40.4462 120.497 40.584 121.543C40.7217 122.589 41.0642 123.598 41.592 124.512C42.1197 125.426 42.8222 126.227 43.6596 126.87C44.4969 127.512 45.4525 127.983 46.4719 128.256L108.572 144.893C110.629 145.443 112.82 145.155 114.665 144.09C116.509 143.026 117.855 141.273 118.408 139.217L139.211 61.5855C139.484 60.5661 139.554 59.5029 139.416 58.4566C139.278 57.4103 138.936 56.4013 138.408 55.4874C137.88 54.5734 137.178 53.7724 136.34 53.13C135.503 52.4876 134.547 52.0164 133.528 51.7434L71.4212 35.0998C69.3634 34.5501 67.1714 34.8398 65.3271 35.9054C63.4828 36.971 62.137 38.7253 61.5855 40.7827L40.7891 118.414Z" fill="#D4D4D8"/>
</g>
<defs>
<clipPath id="clip0_96_18">
<rect width="180" height="180" fill="white"/>
</clipPath>
</defs>
</svg>
